<svg width="25" height="25" viewBox="0 0 14 14" fill="none" xmlns="http://www.w3.org/2000/svg">
<path d="M7.11402 4.66637L7.43802 5.42419C7.45999 5.49008 7.52039 5.52852 7.5808 5.53402L8.40452 5.6109C8.58025 5.62737 8.64614 5.84154 8.51984 5.95686L7.8993 6.50051C7.84988 6.54445 7.82791 6.61034 7.84439 6.67075L8.02561 7.47799C8.06405 7.64823 7.88283 7.78002 7.72907 7.69216L7.02067 7.26932C6.96575 7.23637 6.89437 7.23637 6.83945 7.26932L6.13105 7.69216C5.98278 7.78002 5.79607 7.64823 5.83451 7.47799L6.01573 6.67075C6.03221 6.61034 6.01024 6.54445 5.96082 6.50051L5.34028 5.95686C5.20849 5.84154 5.27988 5.62737 5.4556 5.6109L6.27932 5.53402C6.34522 5.52852 6.40013 5.49008 6.42759 5.42968L6.75159 4.67186C6.81748 4.50711 7.04263 4.50711 7.11402 4.66637Z" stroke="#F0C932" stroke-width="0.549146" stroke-miterlimit="10" stroke-linecap="round" stroke-linejoin="round"/>
<path d="M10.6655 6.27243C10.6797 4.21009 9.01937 2.52673 6.95703 2.51254C4.89469 2.49834 3.21133 4.1587 3.19714 6.22103C3.18294 8.28337 4.84329 9.96674 6.90563 9.98093C8.96797 9.99512 10.6513 8.33477 10.6655 6.27243Z" stroke="#F0C932" stroke-width="0.549146" stroke-miterlimit="10" stroke-linecap="round" stroke-linejoin="round"/>
<path d="M6.42207 9.94366L5.49402 12.2775L4.31884 10.9321L2.5451 11.0969L3.72027 8.15344" stroke="#F0C932" stroke-width="0.549146" stroke-miterlimit="10" stroke-linecap="round" stroke-linejoin="round"/>
<path d="M7.43253 9.94367L8.36608 12.2775L9.53576 10.9321L11.315 11.0969L10.1343 8.15346" stroke="#F0C932" stroke-width="0.549146" stroke-miterlimit="10" stroke-linecap="round" stroke-linejoin="round"/>
</svg>
